<mxfile host="app.diagrams.net" agent="Mozilla/5.0 (Macintosh; Intel Mac OS X 10_15_7) AppleWebKit/537.36 (KHTML, like Gecko) Chrome/139.0.0.0 Safari/537.36" version="28.1.1">
  <diagram name="Page-1" id="Apn31ridkfNWHUmYuSab">
    <mxGraphModel dx="1215" dy="1028" grid="1" gridSize="10" guides="1" tooltips="1" connect="1" arrows="1" fold="1" page="1" pageScale="1" pageWidth="850" pageHeight="1100" math="0" shadow="0">
      <root>
        <mxCell id="0" />
        <mxCell id="1" parent="0" />
        <mxCell id="e4cxs_YV8sIOofGE3uY1-174" value="" style="image;aspect=fixed;perimeter=ellipsePerimeter;html=1;align=center;shadow=0;dashed=0;spacingTop=3;image=img/lib/active_directory/internet_cloud.svg;" vertex="1" parent="1">
          <mxGeometry x="70" y="60" width="190.47" height="120" as="geometry" />
        </mxCell>
        <mxCell id="e4cxs_YV8sIOofGE3uY1-176" value="" style="fontColor=#0066CC;verticalAlign=top;verticalLabelPosition=bottom;labelPosition=center;align=center;html=1;outlineConnect=0;fillColor=#CCCCCC;strokeColor=#6881B3;gradientColor=none;gradientDirection=north;strokeWidth=2;shape=mxgraph.networks.switch;" vertex="1" parent="1">
          <mxGeometry x="115.23000000000002" y="535" width="100" height="30" as="geometry" />
        </mxCell>
        <mxCell id="e4cxs_YV8sIOofGE3uY1-177" value="" style="fontColor=#0066CC;verticalAlign=top;verticalLabelPosition=bottom;labelPosition=center;align=center;html=1;outlineConnect=0;fillColor=#CCCCCC;strokeColor=#6881B3;gradientColor=none;gradientDirection=north;strokeWidth=2;shape=mxgraph.networks.router;" vertex="1" parent="1">
          <mxGeometry x="115.23000000000002" y="270" width="100" height="30" as="geometry" />
        </mxCell>
        <mxCell id="e4cxs_YV8sIOofGE3uY1-217" style="edgeStyle=orthogonalEdgeStyle;rounded=0;orthogonalLoop=1;jettySize=auto;html=1;exitX=0;exitY=0.5;exitDx=0;exitDy=0;exitPerimeter=0;" edge="1" parent="1" source="e4cxs_YV8sIOofGE3uY1-178">
          <mxGeometry relative="1" as="geometry">
            <mxPoint x="115" y="860" as="targetPoint" />
          </mxGeometry>
        </mxCell>
        <mxCell id="e4cxs_YV8sIOofGE3uY1-178" value="" style="fontColor=#0066CC;verticalAlign=top;verticalLabelPosition=bottom;labelPosition=center;align=center;html=1;outlineConnect=0;fillColor=#CCCCCC;strokeColor=#6881B3;gradientColor=none;gradientDirection=north;strokeWidth=2;shape=mxgraph.networks.switch;" vertex="1" parent="1">
          <mxGeometry x="115.23" y="840" width="100" height="30" as="geometry" />
        </mxCell>
        <mxCell id="e4cxs_YV8sIOofGE3uY1-184" value="" style="fontColor=#0066CC;verticalAlign=top;verticalLabelPosition=bottom;labelPosition=center;align=center;html=1;outlineConnect=0;fillColor=#CCCCCC;strokeColor=#6881B3;gradientColor=none;gradientDirection=north;strokeWidth=2;shape=mxgraph.networks.switch;" vertex="1" parent="1">
          <mxGeometry x="500" y="660" width="100" height="30" as="geometry" />
        </mxCell>
        <mxCell id="e4cxs_YV8sIOofGE3uY1-188" value="" style="sketch=0;verticalLabelPosition=bottom;sketch=0;aspect=fixed;html=1;verticalAlign=top;strokeColor=none;fillColor=#000000;align=center;outlineConnect=0;pointerEvents=1;shape=mxgraph.citrix2.bridge;" vertex="1" parent="1">
          <mxGeometry x="335" y="930" width="50" height="27.32" as="geometry" />
        </mxCell>
        <mxCell id="e4cxs_YV8sIOofGE3uY1-198" value="LAN0 - Proxmox MGMT&lt;div&gt;LAN1- TrueNAS MGMT&lt;/div&gt;&lt;div&gt;LAN2 - Unused&lt;/div&gt;&lt;div&gt;LAN3 - Unused&lt;/div&gt;&lt;div&gt;LAN4 - Uplink to Unifi&lt;/div&gt;" style="text;strokeColor=none;align=left;fillColor=none;html=1;verticalAlign=middle;whiteSpace=wrap;rounded=0;" vertex="1" parent="1">
          <mxGeometry x="290" y="250" width="150" height="70" as="geometry" />
        </mxCell>
        <mxCell id="e4cxs_YV8sIOofGE3uY1-199" value="&lt;font style=&quot;font-size: 14px;&quot;&gt;&lt;b&gt;Turris Router&lt;/b&gt;&lt;/font&gt;" style="text;strokeColor=none;align=center;fillColor=none;html=1;verticalAlign=middle;whiteSpace=wrap;rounded=0;" vertex="1" parent="1">
          <mxGeometry x="115.23000000000002" y="240" width="100" height="30" as="geometry" />
        </mxCell>
        <mxCell id="e4cxs_YV8sIOofGE3uY1-200" value="&lt;font style=&quot;font-size: 14px;&quot;&gt;&lt;b&gt;TP Link Switch&lt;/b&gt;&lt;/font&gt;" style="text;strokeColor=none;align=center;fillColor=none;html=1;verticalAlign=middle;whiteSpace=wrap;rounded=0;" vertex="1" parent="1">
          <mxGeometry x="115.23000000000002" y="500" width="100" height="30" as="geometry" />
        </mxCell>
        <mxCell id="e4cxs_YV8sIOofGE3uY1-201" value="&lt;span style=&quot;font-size: 14px;&quot;&gt;&lt;b&gt;Unifi Downstairs Switch&lt;/b&gt;&lt;/span&gt;" style="text;strokeColor=none;align=center;fillColor=none;html=1;verticalAlign=middle;whiteSpace=wrap;rounded=0;" vertex="1" parent="1">
          <mxGeometry x="75.23000000000002" y="810" width="180" height="30" as="geometry" />
        </mxCell>
        <mxCell id="e4cxs_YV8sIOofGE3uY1-202" value="&lt;span style=&quot;font-size: 14px;&quot;&gt;&lt;b&gt;Unifi Upstairs&lt;/b&gt;&lt;/span&gt;&lt;b style=&quot;font-size: 14px; background-color: transparent; color: light-dark(rgb(0, 0, 0), rgb(255, 255, 255));&quot;&gt;&amp;nbsp;Switch&lt;/b&gt;" style="text;strokeColor=none;align=center;fillColor=none;html=1;verticalAlign=middle;whiteSpace=wrap;rounded=0;" vertex="1" parent="1">
          <mxGeometry x="460" y="630" width="180" height="30" as="geometry" />
        </mxCell>
        <mxCell id="e4cxs_YV8sIOofGE3uY1-203" value="&lt;b&gt;MOCA bridge&lt;/b&gt;" style="text;strokeColor=none;align=center;fillColor=none;html=1;verticalAlign=middle;whiteSpace=wrap;rounded=0;" vertex="1" parent="1">
          <mxGeometry x="320" y="900" width="80" height="30" as="geometry" />
        </mxCell>
        <mxCell id="e4cxs_YV8sIOofGE3uY1-211" value="" style="endArrow=classic;startArrow=classic;html=1;rounded=0;edgeStyle=elbowEdgeStyle;entryX=0;entryY=0.5;entryDx=0;entryDy=0;entryPerimeter=0;strokeWidth=2;exitX=0;exitY=0.5;exitDx=0;exitDy=0;exitPerimeter=0;" edge="1" parent="1" source="e4cxs_YV8sIOofGE3uY1-178" target="e4cxs_YV8sIOofGE3uY1-177">
          <mxGeometry width="50" height="50" relative="1" as="geometry">
            <mxPoint x="400" y="580" as="sourcePoint" />
            <mxPoint x="60" y="280" as="targetPoint" />
            <Array as="points">
              <mxPoint x="40" y="560" />
              <mxPoint x="20" y="570" />
            </Array>
          </mxGeometry>
        </mxCell>
        <mxCell id="e4cxs_YV8sIOofGE3uY1-214" value="LAN 4" style="edgeLabel;html=1;align=center;verticalAlign=middle;resizable=0;points=[];" vertex="1" connectable="0" parent="e4cxs_YV8sIOofGE3uY1-211">
          <mxGeometry x="0.8732" y="2" relative="1" as="geometry">
            <mxPoint as="offset" />
          </mxGeometry>
        </mxCell>
        <mxCell id="e4cxs_YV8sIOofGE3uY1-215" value="Port 5" style="edgeLabel;html=1;align=center;verticalAlign=middle;resizable=0;points=[];" vertex="1" connectable="0" parent="e4cxs_YV8sIOofGE3uY1-211">
          <mxGeometry x="-0.8521" relative="1" as="geometry">
            <mxPoint x="8" as="offset" />
          </mxGeometry>
        </mxCell>
        <mxCell id="e4cxs_YV8sIOofGE3uY1-220" value="" style="endArrow=classic;startArrow=classic;html=1;rounded=0;strokeWidth=2;edgeStyle=elbowEdgeStyle;entryX=1;entryY=0.5;entryDx=0;entryDy=0;entryPerimeter=0;exitX=1;exitY=0.5;exitDx=0;exitDy=0;exitPerimeter=0;strokeColor=default;" edge="1" parent="1" source="e4cxs_YV8sIOofGE3uY1-178" target="e4cxs_YV8sIOofGE3uY1-176">
          <mxGeometry width="50" height="50" relative="1" as="geometry">
            <mxPoint x="400" y="580" as="sourcePoint" />
            <mxPoint x="450" y="530" as="targetPoint" />
            <Array as="points">
              <mxPoint x="280" y="710" />
            </Array>
          </mxGeometry>
        </mxCell>
        <mxCell id="e4cxs_YV8sIOofGE3uY1-221" value="Port 8" style="edgeLabel;html=1;align=center;verticalAlign=middle;resizable=0;points=[];" vertex="1" connectable="0" parent="e4cxs_YV8sIOofGE3uY1-220">
          <mxGeometry x="0.8731" y="-1" relative="1" as="geometry">
            <mxPoint x="8" y="1" as="offset" />
          </mxGeometry>
        </mxCell>
        <mxCell id="e4cxs_YV8sIOofGE3uY1-222" value="Port 2" style="edgeLabel;html=1;align=center;verticalAlign=middle;resizable=0;points=[];" vertex="1" connectable="0" parent="e4cxs_YV8sIOofGE3uY1-220">
          <mxGeometry x="-0.8784" relative="1" as="geometry">
            <mxPoint x="10" as="offset" />
          </mxGeometry>
        </mxCell>
        <mxCell id="e4cxs_YV8sIOofGE3uY1-224" value="" style="endArrow=classic;startArrow=classic;html=1;rounded=0;strokeColor=#000000;fontColor=#E4FDE1;fillColor=#F45B69;edgeStyle=elbowEdgeStyle;elbow=vertical;exitX=0.5;exitY=1;exitDx=0;exitDy=0;exitPerimeter=0;strokeWidth=2;" edge="1" parent="1" source="e4cxs_YV8sIOofGE3uY1-178" target="e4cxs_YV8sIOofGE3uY1-188">
          <mxGeometry width="50" height="50" relative="1" as="geometry">
            <mxPoint x="400" y="580" as="sourcePoint" />
            <mxPoint x="450" y="530" as="targetPoint" />
            <Array as="points">
              <mxPoint x="220" y="944" />
            </Array>
          </mxGeometry>
        </mxCell>
        <mxCell id="e4cxs_YV8sIOofGE3uY1-228" value="&lt;font style=&quot;color: rgb(0, 0, 0);&quot;&gt;Port 1&lt;/font&gt;" style="edgeLabel;html=1;align=center;verticalAlign=middle;resizable=0;points=[];strokeColor=#028090;fontColor=#E4FDE1;fillColor=#F45B69;" vertex="1" connectable="0" parent="e4cxs_YV8sIOofGE3uY1-224">
          <mxGeometry x="-0.598" y="2" relative="1" as="geometry">
            <mxPoint x="-2" y="-19" as="offset" />
          </mxGeometry>
        </mxCell>
        <mxCell id="e4cxs_YV8sIOofGE3uY1-225" value="" style="sketch=0;verticalLabelPosition=bottom;sketch=0;aspect=fixed;html=1;verticalAlign=top;strokeColor=none;fillColor=#000000;align=center;outlineConnect=0;pointerEvents=1;shape=mxgraph.citrix2.bridge;" vertex="1" parent="1">
          <mxGeometry x="525" y="930" width="50" height="27.32" as="geometry" />
        </mxCell>
        <mxCell id="e4cxs_YV8sIOofGE3uY1-226" value="&lt;b&gt;MOCA bridge&lt;/b&gt;" style="text;strokeColor=none;align=center;fillColor=none;html=1;verticalAlign=middle;whiteSpace=wrap;rounded=0;" vertex="1" parent="1">
          <mxGeometry x="510" y="900" width="80" height="30" as="geometry" />
        </mxCell>
        <mxCell id="e4cxs_YV8sIOofGE3uY1-227" value="" style="endArrow=classic;startArrow=classic;html=1;rounded=0;strokeColor=#000000;fontColor=#E4FDE1;fillColor=#F45B69;strokeWidth=2;" edge="1" parent="1" source="e4cxs_YV8sIOofGE3uY1-188" target="e4cxs_YV8sIOofGE3uY1-225">
          <mxGeometry width="50" height="50" relative="1" as="geometry">
            <mxPoint x="400" y="580" as="sourcePoint" />
            <mxPoint x="450" y="530" as="targetPoint" />
          </mxGeometry>
        </mxCell>
        <mxCell id="e4cxs_YV8sIOofGE3uY1-229" value="Port 1 - TrueNAS&lt;div&gt;Port 2 - Serial 2 IP&lt;/div&gt;&lt;div&gt;Port 3 - Apple TV&lt;/div&gt;&lt;div&gt;Port 4 - Proxmox&lt;/div&gt;&lt;div&gt;Port 5 - Proxmox&lt;/div&gt;&lt;div&gt;Port 6 - VNETserver&lt;/div&gt;&lt;div&gt;Port 7 - VNETserver&lt;/div&gt;&lt;div&gt;Port 8 - Uplink to Unifi&lt;/div&gt;&lt;div&gt;&lt;br&gt;&lt;/div&gt;" style="text;strokeColor=none;align=left;fillColor=none;html=1;verticalAlign=middle;whiteSpace=wrap;rounded=0;" vertex="1" parent="1">
          <mxGeometry x="290" y="535" width="150" height="70" as="geometry" />
        </mxCell>
        <mxCell id="e4cxs_YV8sIOofGE3uY1-230" value="Port 1 - Moca bridge&lt;div&gt;Port 2 - TP Link uplink&lt;/div&gt;&lt;div&gt;Port 3 - Unused&lt;/div&gt;&lt;div&gt;Port 4 - Unused&lt;/div&gt;&lt;div&gt;Port 5 - Router uplink&lt;/div&gt;&lt;div&gt;&lt;br&gt;&lt;/div&gt;&lt;div&gt;&lt;br&gt;&lt;/div&gt;" style="text;strokeColor=none;align=left;fillColor=none;html=1;verticalAlign=middle;whiteSpace=wrap;rounded=0;" vertex="1" parent="1">
          <mxGeometry x="290" y="810" width="150" height="70" as="geometry" />
        </mxCell>
        <mxCell id="e4cxs_YV8sIOofGE3uY1-231" value="" style="endArrow=classic;startArrow=classic;html=1;rounded=0;strokeColor=#000000;fontColor=#E4FDE1;fillColor=#F45B69;edgeStyle=elbowEdgeStyle;entryX=1;entryY=0.5;entryDx=0;entryDy=0;entryPerimeter=0;strokeWidth=2;" edge="1" parent="1" source="e4cxs_YV8sIOofGE3uY1-225" target="e4cxs_YV8sIOofGE3uY1-184">
          <mxGeometry width="50" height="50" relative="1" as="geometry">
            <mxPoint x="670" y="950" as="sourcePoint" />
            <mxPoint x="450" y="550" as="targetPoint" />
            <Array as="points">
              <mxPoint x="680" y="810" />
            </Array>
          </mxGeometry>
        </mxCell>
      </root>
    </mxGraphModel>
  </diagram>
</mxfile>
